# xmcd
#
# Track frame offsets: 
#        150
#        18649
#        41924
#        69125
#        94981
#        118488
#        162861
#        181020
#        196895
#
# Disc length: 3479 seconds
#
# Revision: 2
# Processed by: cddbd v1.5.2PL0 Copyright (c) Steve Scherf et al.
# Submitted via: ExactAudioCopy v1.0b3
#
DISCID=770d9509
DTITLE=Henrik Freischlader - Henrik Freischlader Band Live
DYEAR=2008
DGENRE=Blues
TTITLE0=The Blues
TTITLE1=Disappointed Women
TTITLE2=Too Cool For Me
TTITLE3=Keep Playin'
TTITLE4=Nothin To Lose
TTITLE5=Dirty Low Down And Bad
TTITLE6=Is It Right
TTITLE7=Livin' It Up
TTITLE8=She's Back (For Another Try)
EXTD=recorded live in Wuppertal, March 7th+8th 2008
EXTT0=
EXTT1=
EXTT2=
EXTT3=
EXTT4=
EXTT5=
EXTT6=
EXTT7=
EXTT8=
PLAYORDER=
